PathFileType	4	(X/Y/Z)	C:/Users/beibeiliu/ov580/test_trc/User2\sequence.23_training_dense_right.trc
DataRate	CameraRate	NumFrames	NumMarkers	Units	OrigDataRate	OrigDataStartFrame	OrigNumFrames
120	120	22	19	mm	120	129	257
Frame#	Time	ThumbCMC			ThumbMCP			ThumbIP			ThumbTip			IndexMCP			IndexPIP			IndexTip			MiddleMCP			MiddlePIP			MiddleTip			RingMCP			RingPIP			RingTip			PinkyMCP			PinkyPIP			PinkyTip			BackHand1			BackHand2			BackHand3	
		X0	Y0	Z0	X1	Y1	Z1	X2	Y2	Z2	X3	Y3	Z3	X4	Y4	Z4	X5	Y5	Z5	X6	Y6	Z6	X7	Y7	Z7	X8	Y8	Z8	X9	Y9	Z9	X10	Y10	Z10	X11	Y11	Z11	X12	Y12	Z12	X13	Y13	Z13	X14	Y14	Z14	X15	Y15	Z15	X16	Y16	Z16	X17	Y17	Z17	X18	Y18	Z18	
128	1.06667	53.4254	-32.8984	103.175	35.6344	-35.5211	71.967	33.1717	-33.5422	34.5203	42.0319	-32.2563	4.89313	42.5499	6.18045	30.0028	31.4911	1.49976	8.53012	18.3371	-3.42512	-16.9931	64.6598	-3.26857	15.339	48.2114	-12.445	-14.1886	35.2549	-25.1086	-42.5192	71.7521	-33.3864	9.62146	55.0738	-61.6889	14.1703	52.1925	-70.3905	49.3072	88.3857	-54.3128	18.8474	65.7027	-64.1059	37.6706	69.8597	-48.611	64.0222	110.339	-14.7562	58.2877	124.759	-24.409	93.3084	88.74	-9.29039	94.7597	
129	1.075	56.0577	-32.6768	98.6091	36.2735	-33.3616	68.1867	30.769	-32.4796	32.0883	40.0793	-33.8945	5.13831	45.6967	4.95421	25.1414	30.6223	2.62405	6.93634	19.9837	-3.43315	-19.4042	63.9253	-3.15662	10.3432	52.6352	-14.2522	-16.5554	35.7145	-24.6275	-43.3573	75.0108	-32.9195	10.0447	58.6441	-59.433	9.95926	53.2439	-71.4303	47.2704	90.3579	-48.854	19.596	67.3377	-66.0228	41.2505	74.0117	-49.6978	66.9555	110.916	-15.2502	60.3092	121.888	-26.6634	95.9858	87.4295	-6.7972	94.0419	
130	1.08333	57.1052	-32.2904	99.6539	34.7946	-31.6446	64.8101	35.3395	-31.0195	29.2846	44.5859	-33.9784	4.6874	48.1412	5.97282	26.5883	32.0513	2.85608	5.5458	25.1523	-3.44698	-21.9751	69.228	-6.39814	7.63869	53.5125	-15.1045	-18.0876	41.5258	-24.4233	-42.4655	78.0423	-35.1778	8.6933	57.9914	-60.6636	11.2586	51.6765	-70.7082	46.9348	88.421	-50.5132	18.7889	68.072	-65.5036	36.7289	70.6894	-47.0267	66.6973	110.824	-14.1432	60.6379	125.626	-28.2631	92.5282	88.9464	-7.83067	91.1436	
131	1.09167	57.577	-29.9772	96.4481	36.3427	-33.2848	67.8578	34.0415	-30.7783	27.2825	44.1175	-33.1103	4.15879	47.8085	7.6446	28.8874	35.8977	4.02364	4.56531	22.9764	-1.73407	-21.0307	71.7705	-5.20946	11.9885	55.0599	-15.0716	-19.1171	45.4152	-26.2026	-46.5954	80.7005	-34.2189	10.0197	59.2299	-59.9066	10.0778	53.8708	-70.5303	46.262	91.6201	-51.6175	18.0144	66.6749	-62.8739	38.7336	70.7271	-48.3786	65.7189	112.032	-16.3194	62.2407	124.526	-23.9712	90.6973	89.7981	-5.67758	89.0789	
132	1.1	54.0234	-31.314	100.503	35.4961	-32.3177	66.3225	35.7401	-28.9303	26.2418	48.8779	-32.5434	4.52598	53.639	5.41628	26.4444	40.4188	2.18005	2.10671	23.7698	-0.335767	-26.082	70.7476	-1.96506	11.802	58.5417	-13.8638	-19.3482	48.9534	-24.2084	-44.1228	80.7695	-34.2814	8.85876	61.0275	-57.6858	8.06719	51.8279	-67.7802	44.2695	95.4391	-50.7545	19.0802	66.5154	-61.3955	38.3775	71.988	-44.9055	61.6824	116.129	-15.6517	61.9293	126.991	-28.0714	93.5956	90.8668	-5.99215	94.4707	
133	1.10833	53.5614	-30.9411	99.9231	40.5405	-30.9282	62.7051	39.9702	-30.4729	29.5446	50.6329	-31.6652	3.81093	48.8222	8.48016	25.5351	37.1646	3.63336	1.59186	29.4891	-0.939622	-27.5798	74.2213	-4.26935	8.847	59.4214	-10.5002	-14.8302	51.3731	-22.483	-45.2908	84.0061	-32.7425	8.86647	65.0451	-59.0406	7.32927	56.7721	-70.7524	40.7421	94.5931	-53.1281	18.5566	68.1714	-62.8488	40.2119	71.6202	-44.129	60.9741	113.873	-15.51	61.2739	121.946	-22.4932	93.2934	87.8643	-5.54923	93.0837	
134	1.11667	57.3955	-31.3549	99.0633	39.9443	-32.3764	65.7984	36.2998	-27.6294	25.9611	50.1277	-27.5856	1.38537	51.9872	9.28812	26.6511	36.3915	6.76173	5.29373	26.7004	2.37222	-24.7585	71.6113	1.25981	10.9038	61.0499	-8.47395	-17.161	50.8272	-20.5714	-48.9164	81.734	-28.0681	8.88533	64.1171	-54.2591	7.08662	53.7667	-64.5519	44.8471	96.3206	-46.2622	19.4726	67.4743	-56.6772	38.7059	71.8189	-40.4103	62.7024	113.796	-12.173	65.7158	123.284	-25.493	97.6309	91.6952	-5.79323	94.6312	
135	1.125	54.3775	-28.2251	99.2855	35.303	-29.3065	65.9136	35.5786	-24.5968	27.3269	50.0769	-24.8321	5.05813	48.0479	13.2727	31.8666	39.3973	8.88399	5.59779	29.8787	5.86819	-21.2365	72.2645	3.14337	10.9812	61.3366	-3.8532	-15.3044	51.7305	-12.046	-42.4198	79.5355	-26.3123	8.72511	61.4823	-52.6527	10.4208	55.6626	-63.736	41.2073	94.0008	-42.9808	21.1607	67.3571	-55.9098	40.7853	72.391	-38.5966	66.5491	112.32	-10.1233	63.1565	123.217	-21.2099	99.2346	87.5607	-3.22424	93.1269	
136	1.13333	53.3023	-28.579	103.553	38.447	-26.1641	68.641	38.2541	-21.668	33.1224	49.3422	-19.2529	8.23324	51.5089	16.4218	34.7213	34.6404	16.136	12.268	26.6187	12.2544	-18.5945	71.4205	8.64384	16.0567	58.8032	4.64943	-8.68658	50.5038	-4.24515	-39.0648	82.5594	-20.3712	12.9763	63.0952	-45.7519	10.1505	53.6853	-60.2068	44.1114	92.6387	-37.946	21.4207	66.7651	-51.1754	41.2695	70.2243	-32.4792	66.7818	112.343	-5.76219	66.2008	124.16	-22.563	99.4218	88.39	-0.262081	97.2485	
137	1.14167	50.8644	-26.0377	106.049	35.4627	-20.7799	70.6884	34.3006	-12.2124	34.0112	46.7023	-13.423	12.6098	47.1315	24.0147	37.6885	33.1855	23.3337	16.7208	22.9127	23.8932	-9.38601	69.3373	17.3781	22.1472	54.464	16.2102	-8.20413	44.8981	10.1488	-34.9296	78.354	-13.2397	14.0107	56.4644	-39.0856	13.5047	50.0017	-52.3853	47.1575	87.5767	-31.5692	22.8398	64.0958	-44.7077	40.1975	72.4527	-31.8759	70.8435	114.22	-3.87088	70.5268	119.306	-15.9485	103.487	84.0894	2.27744	102.496	
138	1.15	49.5911	-23.6665	107.126	32.3948	-17.946	73.586	32.2318	-8.40135	36.4473	43.4338	-5.39287	10.5428	47.4792	27.9996	41.2128	31.7546	30.0141	18.3865	23.9708	29.941	-6.36994	68.3734	23.345	24.5669	54.3689	21.2895	-5.05956	48.9385	16.9941	-31.1129	78.2985	-7.14223	19.6817	57.6407	-35.2939	13.4491	47.4966	-48.4648	46.1105	87.4892	-26.8772	23.4236	62.3187	-40.0731	39.3189	68.3775	-29.3603	71.2131	109.929	0.811973	73.4182	121.024	-16.9244	102.936	85.5709	0.0822579	106.483	
139	1.15833	52.3928	-24.4151	106.881	36.5312	-16.1294	73.3572	32.7243	-6.71927	37.2575	45.2484	-5.04224	15.0699	44.9829	31.6341	44.8983	31.6491	32.6219	19.4141	23.343	32.9017	-3.53045	68.9014	25.5413	27.1682	56.3861	23.4299	-3.84362	49.485	19.719	-31.3786	76.204	-4.39522	21.4963	58.1898	-29.9343	12.9272	48.5374	-48.5832	46.37	88.7469	-27.7105	23.7662	62.9741	-39.2842	36.3135	66.8425	-29.6349	70.0285	108.863	-0.105558	74.7815	120.281	-17.6416	105.422	86.7075	0.961809	106.813	
140	1.16667	52.4742	-21.4482	105.259	31.6859	-16.1367	72.9728	32.5558	-9.57569	38.8513	45.5006	-4.75963	13.5447	48.153	30.2253	45.927	36.2431	31.0495	16.0736	22.8513	32.8792	-7.20776	71.1787	24.0179	28.7984	57.5721	23.2618	-3.48387	52.2804	19.1672	-33.1061	79.323	-8.4271	17.6603	56.2283	-31.1431	13.7991	50.2682	-51.8057	46.2639	92.4234	-26.122	25.2823	64.1551	-40.6053	34.7686	67.2443	-29.2456	70.3152	113.361	-5.6724	74.3061	119.097	-18.9328	103.153	84.2406	2.18953	107.411	
141	1.175	49.3536	-23.7155	107.313	35.5955	-17.6278	70.0047	33.7476	-9.58951	34.1962	46.8038	-10.3537	12.0847	46.9696	29.4185	40.4401	39.4445	28.2095	15.1713	27.8383	26.4299	-10.9749	74.6513	18.8209	25.1056	59.0158	19.3882	-4.01339	52.9471	15.795	-33.4595	75.428	-10.4053	17.8495	58.1321	-37.5954	14.7268	48.2289	-52.0916	43.1444	94.4949	-31.614	24.2135	64.5541	-44.6939	38.4926	69.1647	-36.443	67.8527	110.235	-2.81959	73.6778	122.673	-20.8302	104.557	88.6256	0.245251	103.57	
142	1.18333	50.0393	-22.0152	101.95	32.6387	-20.5242	69.0711	35.5172	-14.4354	31.7796	46.7001	-16.5906	10.1645	51.9511	24.1958	36.6615	38.8401	23.7247	12.8064	28.151	21.7291	-13.6608	74.8822	14.6206	19.8189	65.5079	10.4734	-6.92748	54.4396	7.12456	-40.8243	78.1188	-17.8316	14.3044	59.3268	-38.6793	12.4107	50.4566	-57.6716	47.487	93.2377	-36.1906	22.8381	65.7583	-47.9571	35.4166	69.1206	-40.7022	69.8063	112.085	-8.76114	74.4473	123.591	-20.3822	100.233	86.6854	1.65232	103.126	
143	1.19167	53.5073	-24.3073	99.2924	34.7696	-25.1858	68.176	36.115	-20.369	28.5512	49.7186	-20.1048	4.74942	52.9561	18.8428	34.9979	39.0392	17.4883	5.41983	32.4639	11.9706	-20.7756	77.6021	8.54801	18.3986	67.8774	3.22001	-11.0114	56.4297	-1.41729	-43.2164	83.1118	-21.2632	16.0755	61.3637	-51.4888	13.8463	51.3976	-62.39	44.3745	97.3801	-41.4812	23.2111	69.2039	-55.8194	35.7889	67.6491	-39.9146	66.4463	112.557	-7.44682	69.3404	121.003	-25.0941	104.7	87.1036	-2.98691	98.5117	
144	1.2	53.0182	-29.0235	101.51	34.9032	-29.0629	64.6758	38.2149	-26.7878	28.7635	47.4229	-28.0745	3.32152	52.6806	13.51	26.7641	43.668	9.02848	-0.628476	31.1625	5.25019	-22.6427	76.0559	3.16124	16.5331	67.1779	-5.16154	-15.8413	59.0311	-11.071	-43.989	82.6321	-29.5503	12.0154	65.7879	-54.3366	10.8209	53.9574	-68.7487	45.9195	97.8797	-49.2126	21.57	67.2637	-59.8043	37.9805	68.5028	-46.4328	63.3438	112.518	-13.2093	65.965	120.95	-25.1662	104.253	88.1618	-1.79677	95.5996	
145	1.20833	52.7994	-30.4382	98.1708	38.2417	-32.0273	61.8471	36.8983	-33.0939	26.3311	48.9702	-34.4624	1.70403	55.0954	4.9301	21.9039	44.1392	1.47692	-1.16467	32.4337	-5.31249	-27.3886	78.76	-3.77739	12.6092	68.8211	-12.61	-17.1055	62.0482	-23.0532	-46.2938	83.6846	-35.1795	11.1399	63.5155	-62.4342	11.8574	55.3885	-73.2248	45.9889	98.0812	-52.5945	22.0052	70.1837	-66.0895	35.6283	71.4435	-53.7405	66.8096	116.613	-18.8219	66.7185	120.959	-26.2559	100.998	89.7866	-5.71074	93.2819	
146	1.21667	52.2146	-30.2978	93.9633	38.3883	-36.9011	63.6672	39.6401	-37.692	24.9516	49.3484	-43.4762	3.2091	51.4533	0.0786489	17.9451	42.1771	-6.47538	-2.13861	35.2142	-18.2244	-32.552	78.1042	-12.0714	9.57534	69.3721	-23.3694	-20.5698	61.2705	-36.6239	-51.0394	85.8696	-43.0929	12.7144	64.7882	-69.979	14.5721	54.8127	-77.654	46.9642	96.2718	-61.9905	21.6126	69.5041	-71.679	39.5684	71.3172	-52.5379	65.9818	112.87	-17.4767	63.537	120.238	-28.1849	97.7225	87.1743	-9.21457	92.4431	
147	1.225	50.1897	-31.5929	94.1161	37.2702	-40.3665	62.7872	39.3304	-43.961	26.7232	50.5317	-49.2256	3.59741	55.2506	-7.50168	17.6601	44.4564	-15.1957	-7.22266	34.451	-27.4232	-33.7522	79.7852	-19.8805	4.81044	67.6654	-31.417	-24.0055	57.5979	-45.4767	-50.6938	83.917	-48.8759	12.8127	66.3838	-75.6259	15.852	55.5432	-81.5789	50.7099	97.6346	-61.8794	24.393	73.2878	-78.0949	41.11	71.8923	-62.2711	69.7086	113.103	-21.2288	64.3371	117.878	-26.6748	95.9422	87.6557	-10.7676	90.3274	
148	1.23333	51.5023	-33.6798	94.7658	35.5067	-42.8374	60.9656	37.9464	-48.0976	23.928	47.3263	-55.9039	2.59482	51.2427	-12.6441	14.3438	42.3147	-24.755	-10.4936	31.1211	-35.5967	-34.0963	75.8612	-25.0801	4.37533	69.1237	-38.8362	-19.8598	59.5984	-56.966	-48.7668	81.3158	-55.5226	12.7378	66.6572	-82.4178	18.9691	55.3567	-83.2874	54.2057	95.5372	-70.5182	24.7199	73.4469	-84.0905	47.7107	75.0101	-61.4439	72.7242	112.652	-24.9695	60.8626	118.183	-26.4411	97.3686	87.8149	-10.0178	88.4866	
149	1.24167	48.2167	-34.8792	96.3438	35.3132	-46.0565	66.1275	35.949	-53.5488	25.4532	50.7368	-62.0213	5.59647	53.5947	-18.4909	15.2324	43.7406	-30.2508	-6.57657	35.7621	-42.82	-30.5368	75.305	-28.5374	6.60524	66.163	-44.9919	-19.506	59.4638	-63.967	-47.3612	81.0182	-59.3919	15.3696	66.2233	-84.9505	22.5238	57.2744	-86.2141	61.6705	94.2687	-74.1613	27.9661	72.9503	-86.0805	50.1912	75.2673	-63.6248	75.2706	111.497	-25.2882	62.3686	119.857	-26.9349	96.4854	82.3939	-10.1522	86.5383	
